<svg xmlns="http://www.w3.org/2000/svg" width="141" height="33" fill="none" viewBox="0 0 141 33"><path fill="#fff" d="M0 6.737v25.871h3.714V13.875h.24l7.63 18.696h3.082l7.63-18.684h.24v18.721h3.714V6.738h-4.737l-8.236 20.11h-.303L4.736 6.738zM39.985 33c4.232 0 7.225-2.084 8.084-5.242l-3.575-.645c-.682 1.832-2.324 2.767-4.471 2.767-3.234 0-5.407-2.097-5.508-5.836h13.794v-1.34c0-7.01-4.194-9.752-8.59-9.752-5.406 0-8.969 4.119-8.969 10.081 0 6.026 3.512 9.967 9.235 9.967m-5.457-11.786c.151-2.754 2.147-5.141 5.217-5.141 2.93 0 4.85 2.172 4.863 5.141zM67.04 17.942c-.783-3.019-3.145-4.99-7.34-4.99-4.383 0-7.49 2.312-7.49 5.748 0 2.754 1.667 4.586 5.305 5.394l3.285.72c1.87.417 2.74 1.25 2.74 2.464 0 1.503-1.603 2.678-4.08 2.678-2.26 0-3.713-.973-4.168-2.88l-3.65.555c.63 3.436 3.486 5.369 7.844 5.369 4.687 0 7.933-2.489 7.933-6 0-2.742-1.743-4.434-5.306-5.256l-3.082-.707c-2.135-.505-3.057-1.225-3.044-2.539-.013-1.49 1.604-2.552 3.752-2.552 2.35 0 3.436 1.301 3.878 2.603zM80.63 13.205h-3.98V8.556h-3.777v4.65h-2.842v3.03h2.842v11.458c-.013 3.525 2.678 5.23 5.66 5.167 1.2-.013 2.008-.24 2.45-.404l-.682-3.12c-.253.05-.72.164-1.326.164-1.226 0-2.325-.404-2.325-2.59V16.237h3.98zM92.772 33c5.47 0 9.045-4.004 9.045-10.005 0-6.038-3.575-10.043-9.045-10.043s-9.045 4.005-9.045 10.043c0 6 3.575 10.005 9.045 10.005m.013-3.17c-3.575 0-5.243-3.12-5.243-6.847 0-3.714 1.668-6.873 5.243-6.873 3.55 0 5.217 3.159 5.217 6.873 0 3.726-1.667 6.846-5.217 6.846M105.909 8.893h1.044V5.525h1.886q.113.001.219-.005l1.819 3.373h1.213l-1.95-3.562c1.099-.375 1.613-1.272 1.613-2.417 0-1.524-.909-2.645-2.931-2.645h-2.913zm1.044-4.312V1.196h1.836c1.398 0 1.937.682 1.937 1.718s-.539 1.667-1.92 1.667zM117.435 6.249c0 1.213-.927 1.768-1.668 1.768-.825 0-1.415-.606-1.415-1.55V2.426h-.994v4.11c0 1.65.876 2.442 2.089 2.442.977 0 1.617-.522 1.92-1.179h.068v1.095h.993V2.425h-.993zM124.83 3.874c-.312-.918-1.011-1.533-2.291-1.533-1.364 0-2.375.775-2.375 1.87 0 .892.531 1.49 1.718 1.768l1.078.253c.653.152.96.463.96.91 0 .555-.589 1.01-1.516 1.01-.812 0-1.322-.35-1.499-1.044l-.943.236c.232 1.099 1.137 1.684 2.459 1.684 1.503 0 2.527-.821 2.527-1.937 0-.901-.565-1.47-1.718-1.752l-.96-.236c-.767-.189-1.112-.446-1.112-.943 0-.556.589-.96 1.381-.96.867 0 1.225.48 1.398.927zM131.025 3.874c-.312-.918-1.011-1.533-2.291-1.533-1.364 0-2.375.775-2.375 1.87 0 .892.531 1.49 1.718 1.768l1.078.253c.653.152.96.463.96.91 0 .555-.589 1.01-1.516 1.01-.812 0-1.322-.35-1.499-1.044l-.943.236c.232 1.099 1.137 1.684 2.459 1.684 1.504 0 2.527-.821 2.527-1.937 0-.901-.564-1.47-1.718-1.752l-.96-.236c-.767-.189-1.112-.446-1.112-.943 0-.556.59-.96 1.381-.96.868 0 1.226.48 1.398.927zM132.639 8.893h.993V2.425h-.993zm.505-7.546c.387 0 .707-.303.707-.673s-.32-.674-.707-.674-.707.303-.707.674c0 .37.32.673.707.673M137.356 9.045c1.128 0 1.718-.607 1.92-1.028h.05v.876h.994V4.632c0-2.055-1.566-2.29-2.392-2.29-.976 0-2.088.336-2.593 1.515l.943.337c.219-.472.737-.977 1.684-.977.914 0 1.364.484 1.364 1.314v.034c0 .48-.488.437-1.667.589-1.2.156-2.51.421-2.51 1.903 0 1.264.977 1.988 2.207 1.988m.151-.893c-.791 0-1.364-.354-1.364-1.044 0-.758.691-.994 1.465-1.095.421-.05 1.55-.168 1.718-.37v.909c0 .808-.64 1.6-1.819 1.6"/></svg>